<svg xmlns="http://www.w3.org/2000/svg" width="16.196" height="14" viewBox="0 0 16.196 14">
  <path id="Like" d="M256.859,149.187a4.2,4.2,0,0,0-5.9,0l-.984.984-.984-.984a4.173,4.173,0,0,0-5.9,5.9l.984.984,5.9,5.9,5.9-5.9.984-.984A4.2,4.2,0,0,0,256.859,149.187Zm-2.881,6.956-3.935,3.935-3.935-3.935-1.967-1.967a2.843,2.843,0,0,1,0-3.935,2.717,2.717,0,0,1,3.935,0l1.967,1.967,1.967-1.967a2.717,2.717,0,0,1,3.935,0,2.843,2.843,0,0,1,0,3.935Z" transform="translate(-241.875 -147.975)" fill="#08080e"/>
</svg>