<svg xmlns="http://www.w3.org/2000/svg" width="14" height="14" viewBox="0 0 14 14">
  <path id="Settings" d="M206.25,154.75a1.75,1.75,0,0,0,0-3.5h-.292a2.072,2.072,0,0,0-.233-.525l.233-.233a1.732,1.732,0,0,0-2.45-2.45l-.233.233c-.175-.058-.35-.175-.525-.233v-.292a1.75,1.75,0,0,0-3.5,0v.292a2.071,2.071,0,0,0-.525.233l-.233-.233a1.732,1.732,0,0,0-2.45,2.45l.233.233c-.058.175-.175.35-.233.525h-.292a1.75,1.75,0,0,0,0,3.5h.292a2.072,2.072,0,0,0,.233.525l-.233.233a1.732,1.732,0,0,0,2.45,2.45l.233-.233c.175.058.35.175.525.233v.292a1.75,1.75,0,0,0,3.5,0v-.292a2.072,2.072,0,0,0,.525-.233l.233.233a1.732,1.732,0,0,0,2.45-2.45l-.233-.233c.058-.175.175-.35.233-.525h.292Zm-1.225-1.167a4.088,4.088,0,0,1-.758,1.867l.817.817h0a.577.577,0,0,1-.817.817h0l-.817-.817a3.541,3.541,0,0,1-1.867.758v1.225a.583.583,0,0,1-1.167,0v-1.225a4.088,4.088,0,0,1-1.867-.758l-.817.817h0a.577.577,0,0,1-.817-.817h0l.817-.817a3.541,3.541,0,0,1-.758-1.867H195.75a.583.583,0,1,1,0-1.167h1.225a4.088,4.088,0,0,1,.758-1.867l-.817-.817h0a.577.577,0,0,1,.817-.817h0l.817.817a3.541,3.541,0,0,1,1.867-.758V147.75a.583.583,0,1,1,1.167,0v1.225a4.088,4.088,0,0,1,1.867.758l.817-.817h0a.577.577,0,0,1,.817.817h0l-.817.817a3.541,3.541,0,0,1,.758,1.867h1.225a.583.583,0,0,1,0,1.167ZM201,150.667A2.333,2.333,0,1,0,203.333,153,2.34,2.34,0,0,0,201,150.667Zm0,3.5A1.167,1.167,0,1,1,202.167,153,1.17,1.17,0,0,1,201,154.167Z" transform="translate(-194 -146)" fill="#08080e"/>
</svg>